<svg xmlns="http://www.w3.org/2000/svg" id="Layer_1" height="512" viewBox="0 0 512 512" width="512"><path d="m351.564 404.728c-16.428-14.856-35.879-25.531-56.817-31.436 22.295-13.266 37.274-37.596 37.274-65.369 0-41.918-34.103-76.021-76.021-76.021-41.917 0-76.02 34.103-76.02 76.021 0 27.773 14.979 52.103 37.274 65.369-20.939 5.905-40.391 16.58-56.819 31.436-26.039 23.548-42.428 55.66-46.147 90.42-.242 2.257.486 4.51 2.004 6.198s3.681 2.653 5.95 2.653l267.515-.001c2.27 0 4.433-.964 5.95-2.653 1.518-1.688 2.246-3.941 2.004-6.199-3.719-34.759-20.109-66.87-46.147-90.418zm-155.583-96.805c0-33.095 26.925-60.021 60.02-60.021 33.096 0 60.021 26.925 60.021 60.021 0 33.091-26.917 60.012-60.007 60.02-.004 0-.009 0-.013 0s-.009 0-.013 0c-33.091-.007-60.008-26.929-60.008-60.02zm-64.524 180.077c10.669-59.911 62.712-104.051 124.531-104.057h.013s.009 0 .013 0c61.816.006 113.86 44.146 124.53 104.056zm36.479-400.128 40.243 32.345-13.545 49.822c-1.32 4.858.458 9.909 4.531 12.868 2.119 1.54 4.584 2.313 7.055 2.313 2.278 0 4.562-.658 6.582-1.981l43.198-28.278 43.199 28.278c4.211 2.757 9.564 2.627 13.639-.333 4.072-2.96 5.85-8.011 4.528-12.867l-13.545-49.821 40.243-32.346c3.924-3.154 5.453-8.285 3.897-13.073s-5.81-8.04-10.837-8.285l-51.57-2.514-18.325-48.268c-1.783-4.697-6.189-7.731-11.228-7.732 0 0 0 0-.001 0-5.038 0-9.445 3.035-11.229 7.732l-18.325 48.268-51.57 2.514c-5.028.245-9.282 3.498-10.838 8.286s-.026 9.919 3.898 13.072zm61.895-8.018c4.771-.232 8.949-3.267 10.646-7.734l15.523-40.886 15.524 40.888c1.696 4.465 5.875 7.5 10.644 7.732l43.684 2.129-34.088 27.398c-3.726 2.994-5.321 7.907-4.066 12.514l11.473 42.203-36.593-23.955c-1.997-1.307-4.286-1.96-6.576-1.96s-4.58.654-6.579 1.961l-36.591 23.954 11.473-42.203c1.253-4.608-.343-9.52-4.065-12.513l-34.089-27.399zm-102.371 130.411h-62.975c-4.418 0-8-3.582-8-8s3.582-8 8-8h62.976c4.418 0 8 3.582 8 8s-3.583 8-8.001 8zm-44.246-107.757c2.208-3.827 7.101-5.138 10.928-2.928l54.539 31.488c3.826 2.209 5.138 7.102 2.928 10.928-1.481 2.566-4.171 4.001-6.936 4.001-1.357 0-2.732-.346-3.992-1.073l-54.539-31.488c-3.826-2.209-5.138-7.102-2.928-10.928zm65.467 170.956-54.539 31.488c-1.26.727-2.636 1.073-3.992 1.073-2.766 0-5.454-1.435-6.936-4.001-2.21-3.826-.898-8.719 2.928-10.928l54.539-31.488c3.829-2.21 8.72-.896 10.928 2.928 2.21 3.826.898 8.719-2.928 10.928zm280.104 28.559c-1.481 2.566-4.171 4.001-6.936 4.001-1.357 0-2.732-.346-3.992-1.073l-54.538-31.488c-3.826-2.209-5.138-7.102-2.928-10.928 2.209-3.826 7.101-5.139 10.928-2.928l54.538 31.488c3.826 2.209 5.138 7.102 2.928 10.928zm26.73-99.758c0 4.418-3.582 8-8 8h-62.975c-4.418 0-8-3.582-8-8s3.582-8 8-8h62.976c4.417 0 7.999 3.582 7.999 8zm-95.124-60.27c-2.21-3.826-.898-8.719 2.928-10.928l54.538-31.488c3.829-2.21 8.72-.897 10.928 2.928 2.21 3.826.898 8.719-2.928 10.928l-54.538 31.488c-1.26.727-2.636 1.073-3.992 1.073-2.766.001-5.454-1.434-6.936-4.001z"></path></svg>