<svg xmlns="http://www.w3.org/2000/svg" height="512" viewBox="0 0 46 60" width="512"><g id="Page-1" fill="none" fill-rule="evenodd"><g id="034---Reacing-Goals" fill="rgb(0,0,0)" fill-rule="nonzero"><path id="Shape" d="m33.9 7.9c-.2048327-.64406917-.7607565-1.11368868-1.43-1.208l-5.454-.788-2.441-4.92c-.2962617-.60309688-.9100654-.98488121-1.582-.984-.671396-.00191958-1.2852582.37873707-1.582.981l-2.451 4.925-5.443.788c-.668545.09772168-1.2234374.56692026-1.430907 1.20992747-.2074696.6430072-.0314487 1.34803877.453907 1.81807253l3.934 3.81-.93 5.391c-.1197677.6634335.1488458 1.3371446.692226 1.7361762.5433803.3990316 1.2666048.4536773 1.863774.1408238l4.89-2.554 4.892 2.554c.5969462.3109964 1.3186624.2562732 1.8618918-.1411754.5432293-.3974487.8138337-1.0687475.6981082-1.7318246l-.93-5.392 3.933-3.809c.4907752-.47018629.6677714-1.18050501.455-1.826zm-6.157 4.561c-.2377977.2301015-.3463719.5629376-.29.889l.941 5.456-4.936-2.579c-.2900714-.1515223-.6359286-.1515223-.926 0l-4.937 2.578.941-5.455c.0566252-.3258927-.0515657-.6587014-.289-.889l-3.984-3.854 5.5-.8c.3253113-.0468827.606815-.25062708.753-.545l2.473-4.974 2.464 4.973c.1459349.29475845.4274821.49890821.753.546l5.514.8z"></path><path id="Shape" d="m29.8 41.9c3.1440304-3.6312099 2.8825336-9.0914069-.5941194-12.4055427-3.4766531-3.3141358-8.9431081-3.3141358-12.4197612 0-3.476653 3.3141358-3.7381498 8.7743328-.5941194 12.4055427-3.1971735 1.6354969-5.2040865 4.9288133-5.192 8.52v6.58c0 1.6568542 1.3431458 3 3 3h18c1.6568542 0 3-1.3431458 3-3v-6.58c.0105544-3.5929511-1.9997221-6.8867118-5.2-8.52zm-6.8-12.87c3.8659932 0 7 3.1340068 7 7s-3.1340068 7-7 7-7-3.1340068-7-7c.0044086-3.8641657 3.1358343-6.9955914 7-7zm10 27.97c0 .5522847-.4477153 1-1 1h-2v-5.67c0-.5522847-.4477153-1-1-1s-1 .4477153-1 1v5.67h-10v-5.67c0-.5522847-.4477153-1-1-1s-1 .4477153-1 1v5.67h-2c-.5522847 0-1-.4477153-1-1v-6.58c-.0040793-3.1194741 1.9167043-5.9181142 4.829-7.036 3.0979901 2.1948144 7.2440099 2.1948144 10.342 0 2.9122957 1.1178858 4.8330793 3.9165259 4.829 7.036z"></path><path id="Shape" d="m8.858 16.01-7 1c-.54676189.0784245-.9264244.5852381-.84799996 1.132.07842443.5467619.58523807.9264244 1.13199996.848l3.94-.563c-8.57319724 9.3041305-8.01586266 23.7872317 1.247 32.405.26004882.2520064.63601904.3437352.98290793.2398086.34688889-.1039265.61048951-.3872681.6891374-.7407468.07864788-.3534786-.03994696-.7218575-.31004533-.9630618-4.14403836-3.8508635-6.55516077-9.2135672-6.68529685-14.8691192s2.03176993-11.1234826 5.99429685-15.1608808v4.662c0 .5522847.44771525 1 1 1s1-.4477153 1-1v-7c.0000387-.2900167-.1258316-.5657651-.3449687-.7557351s-.50995347-.2754473-.7970313-.2342649z"></path><path id="Shape" d="m43.858 18.99c.3536929.0507317.7075837-.0910832.9283652-.3720244.2207814-.2809412.2749115-.6583271.142-.99s-.4326723-.5672439-.7863652-.6179756l-7-1c-.2870778-.0411824-.5778942.0442949-.7970313.2342649s-.3450074.4657184-.3449687.7557351v7c0 .5522847.4477153 1 1 1s1-.4477153 1-1v-4.692c3.9629388 4.0432003 6.1246394 9.5157561 5.9945313 15.1757406-.1301081 5.6599844-2.5409917 11.0274286-6.6855313 14.8842594-.2700984.2412043-.3886932.6095832-.3100453.9630618.0786479.3534787.3422485.6368203.6891374.7407468.3468889.1039266.7228591.0121978.9829079-.2398086 9.2552548-8.6176128 9.8172038-23.0907023 1.258-32.4z"></path></g></g></svg>